STARTFONT 2.1
FONT -Adobe-New Century Schoolbook-Medium-I-Normal--25-180-100-100-P-136-ISO8859-2
SIZE 18 100 100
FONTBOUNDINGBOX 31 28 -4 -5
COMMENT $XConsortium: ncenI18.bdf,v 1.7 95/01/26 17:56:50 gildea Exp $
COMMENT 
COMMENT +
COMMENT  Copyright 1984-1989, 1994 Adobe Systems Incorporated.
COMMENT  Copyright 1988, 1994 Digital Equipment Corporation.
COMMENT
COMMENT  Adobe is a trademark of Adobe Systems Incorporated which may be
COMMENT  registered in certain jurisdictions.
COMMENT  Permission to use these trademarks is hereby granted only in
COMMENT  association with the images described in this file.
COMMENT
COMMENT  Permission to use, copy, modify, distribute and sell this software
COMMENT  and its documentation for any purpose and without fee is hereby
COMMENT  granted, provided that the above copyright notices appear in all
COMMENT  copies and that both those copyright notices and this permission
COMMENT  notice appear in supporting documentation, and that the names of
COMMENT  Adobe Systems and Digital Equipment Corporation not be used in
COMMENT  advertising or publicity pertaining to distribution of the software
COMMENT  without specific, written prior permission.  Adobe Systems and
COMMENT  Digital Equipment Corporation make no representations about the
COMMENT  suitability of this software for any purpose.  It is provided "as
COMMENT  is" without express or implied warranty.
COMMENT -
COMMENT  
COMMENT  Translation to ISO8859-2 by Cub Soft;  Petr.Kolar@vslib.cz
COMMENT  
STARTPROPERTIES 28
FOUNDRY "Adobe"
FAMILY_NAME "New Century Schoolbook"
WEIGHT_NAME "Medium"
SLANT "I"
SETWIDTH_NAME "Normal"
ADD_STYLE_NAME ""
PIXEL_SIZE 25
POINT_SIZE 180
RESOLUTION_X 100
RESOLUTION_Y 100
SPACING "P"
AVERAGE_WIDTH 136
CHARSET_REGISTRY "ISO8859"
CHARSET_ENCODING "2"
CAP_HEIGHT 18
X_HEIGHT 12
FONT_ASCENT 21
FONT_DESCENT 5
FACE_NAME "New Century Schoolbook Italic"

STARTCHAR space
ENCODING 32
SWIDTH 278 0
DWIDTH 7 0
BBX 1 1 0 0
BITMAP
00
ENDCHAR
STARTCHAR exclam
ENCODING 33
SWIDTH 333 0
DWIDTH 7 0
BBX 6 18 0 0
BITMAP
0c
0c
0c
0c
18
18
18
18
30
30
30
20
20
00
00
c0
c0
c0
ENDCHAR
STARTCHAR quotedbl
ENCODING 34
SWIDTH 400 0
DWIDTH 8 0
BBX 5 6 2 12
BITMAP
48
48
48
90
90
90
ENDCHAR
STARTCHAR numbersign
ENCODING 35
SWIDTH 606 0
DWIDTH 15 0
BBX 13 16 1 1
BITMAP
0440
0440
0440
0440
0440
7ff8
0880
0880
0880
0880
fff0
1100
1100
1100
1100
1100
ENDCHAR
STARTCHAR dollar
ENCODING 36
SWIDTH 556 0
DWIDTH 13 0
BBX 12 23 0 -3
BITMAP
0080
0080
07e0
1d70
1130
3130
3200
3200
3a00
1e00
0f80
03c0
02c0
0260
0260
4460
e460
e4c0
65c0
3f00
0800
0800
0800
ENDCHAR
STARTCHAR percent
ENCODING 37
SWIDTH 833 0
DWIDTH 19 0
BBX 17 19 1 -1
BITMAP
0e3800
31c800
611800
611000
c13000
c22000
c26000
444000
38c000
008700
019880
013080
033080
026080
066100
046100
0c2200
081c00
080000
ENDCHAR
STARTCHAR ampersand
ENCODING 38
SWIDTH 852 0
DWIDTH 19 0
BBX 17 18 1 0
BITMAP
01f000
031800
061800
061800
063000
066000
038000
070000
1b1f80
718600
618400
c0c400
c0c800
c06800
c07000
c07080
61b900
3e1e00
ENDCHAR
STARTCHAR apostrophe
ENCODING 39
SWIDTH 204 0
DWIDTH 6 0
BBX 4 6 2 12
BITMAP
60
70
30
20
40
80
ENDCHAR
STARTCHAR parenleft
ENCODING 40
SWIDTH 333 0
DWIDTH 8 0
BBX 8 20 1 -2
BITMAP
03
06
0c
18
30
30
60
60
60
c0
c0
c0
c0
c0
c0
60
60
60
30
18
ENDCHAR
STARTCHAR parenright
ENCODING 41
SWIDTH 333 0
DWIDTH 8 0
BBX 8 20 -1 -2
BITMAP
18
0c
06
06
06
03
03
03
03
03
03
06
06
06
0c
0c
18
30
60
c0
ENDCHAR
STARTCHAR asterisk
ENCODING 42
SWIDTH 500 0
DWIDTH 11 0
BBX 9 11 1 7
BITMAP
0c00
0c00
c980
c980
2a00
1c00
2a00
c980
c980
1800
1800
ENDCHAR
STARTCHAR plus
ENCODING 43
SWIDTH 606 0
DWIDTH 13 0
BBX 11 11 1 2
BITMAP
0400
0400
0400
0400
0400
ffe0
0400
0400
0400
0400
0400
ENDCHAR
STARTCHAR comma
ENCODING 44
SWIDTH 278 0
DWIDTH 7 0
BBX 4 6 0 -3
BITMAP
60
70
30
20
40
80
ENDCHAR
STARTCHAR minus
ENCODING 45
SWIDTH 606 0
DWIDTH 14 0
BBX 12 1 1 7
BITMAP
fff0
ENDCHAR
STARTCHAR period
ENCODING 46
SWIDTH 278 0
DWIDTH 7 0
BBX 2 3 1 0
BITMAP
c0
c0
c0
ENDCHAR
STARTCHAR slash
ENCODING 47
SWIDTH 606 0
DWIDTH 14 0
BBX 8 18 3 0
BITMAP
03
02
02
06
04
04
0c
08
08
18
10
10
30
20
20
60
40
c0
ENDCHAR
STARTCHAR zero
ENCODING 48
SWIDTH 556 0
DWIDTH 13 0
BBX 11 18 1 0
BITMAP
0380
0cc0
1860
3060
3060
6060
6060
6060
c060
c060
c0c0
c0c0
c0c0
c180
c180
c300
6600
3800
ENDCHAR
STARTCHAR one
ENCODING 49
SWIDTH 556 0
DWIDTH 13 0
BBX 8 18 2 0
BITMAP
01
07
3f
03
06
06
06
06
0c
0c
0c
0c
0c
18
18
18
18
ff
ENDCHAR
STARTCHAR two
ENCODING 50
SWIDTH 556 0
DWIDTH 13 0
BBX 11 18 1 0
BITMAP
0780
18c0
3060
3060
3860
1860
0060
00c0
00c0
0180
0300
0600
0c00
1820
3020
6040
ffc0
ffc0
ENDCHAR
STARTCHAR three
ENCODING 51
SWIDTH 556 0
DWIDTH 13 0
BBX 11 18 1 0
BITMAP
0780
18c0
3060
3860
1860
0060
00c0
0180
0f00
0180
00c0
00c0
00c0
60c0
e180
c180
4300
3c00
ENDCHAR
STARTCHAR four
ENCODING 52
SWIDTH 556 0
DWIDTH 13 0
BBX 11 18 1 0
BITMAP
00e0
0160
0160
0260
0460
04c0
08c0
10c0
10c0
2180
4180
4180
8180
ffe0
0300
0300
0300
0fc0
ENDCHAR
STARTCHAR five
ENCODING 53
SWIDTH 556 0
DWIDTH 13 0
BBX 12 18 1 0
BITMAP
0ff0
0fe0
0800
0800
1000
1000
1000
1f80
30c0
2060
0060
0060
0060
6060
e0c0
c0c0
4380
3e00
ENDCHAR
STARTCHAR six
ENCODING 54
SWIDTH 556 0
DWIDTH 13 0
BBX 11 18 1 0
BITMAP
03c0
0c60
1860
3060
3000
6000
6000
6f80
d0c0
e060
c060
c060
c060
c0c0
c0c0
c180
6300
3c00
ENDCHAR
STARTCHAR seven
ENCODING 55
SWIDTH 556 0
DWIDTH 13 0
BBX 11 18 1 0
BITMAP
7fe0
7fe0
4040
80c0
8080
0180
0100
0300
0200
0600
0400
0c00
0800
1800
1000
3000
3000
3000
ENDCHAR
STARTCHAR eight
ENCODING 56
SWIDTH 556 0
DWIDTH 13 0
BBX 11 18 1 0
BITMAP
0f80
1840
3020
3020
3020
3040
18c0
0d00
0f00
3380
4180
c0c0
80c0
80c0
80c0
8180
4380
3e00
ENDCHAR
STARTCHAR nine
ENCODING 57
SWIDTH 556 0
DWIDTH 13 0
BBX 11 18 1 0
BITMAP
0780
18c0
3060
6060
6060
c060
c060
c060
c0e0
6160
3ec0
00c0
00c0
0180
c180
c300
c600
7800
ENDCHAR
STARTCHAR colon
ENCODING 58
SWIDTH 278 0
DWIDTH 7 0
BBX 4 12 1 0
BITMAP
30
30
30
00
00
00
00
00
00
c0
c0
c0
ENDCHAR
STARTCHAR semicolon
ENCODING 59
SWIDTH 278 0
DWIDTH 7 0
BBX 5 15 0 -3
BITMAP
18
18
18
00
00
00
00
00
00
60
70
30
20
40
80
ENDCHAR
STARTCHAR less
ENCODING 60
SWIDTH 606 0
DWIDTH 14 0
BBX 12 11 1 2
BITMAP
0030
00c0
0300
0c00
3000
c000
3000
0c00
0300
00c0
0030
ENDCHAR
STARTCHAR equal
ENCODING 61
SWIDTH 606 0
DWIDTH 15 0
BBX 13 5 1 5
BITMAP
fff8
0000
0000
0000
fff8
ENDCHAR
STARTCHAR greater
ENCODING 62
SWIDTH 606 0
DWIDTH 14 0
BBX 12 11 1 2
BITMAP
c000
3000
0c00
0300
00c0
0030
00c0
0300
0c00
3000
c000
ENDCHAR
STARTCHAR question
ENCODING 63
SWIDTH 444 0
DWIDTH 10 0
BBX 8 18 2 0
BITMAP
3c
46
83
83
03
07
0e
3c
70
c0
80
88
70
00
00
c0
c0
c0
ENDCHAR
STARTCHAR at
ENCODING 64
SWIDTH 747 0
DWIDTH 19 0
BBX 17 17 1 0
BITMAP
03f000
0c0c00
100200
200100
21d900
463880
461880
8c1880
8c1880
8c3080
8c3100
8c3100
445200
438c00
200000
180c00
07f000
ENDCHAR
STARTCHAR A
ENCODING 65
SWIDTH 704 0
DWIDTH 18 0
BBX 18 18 -1 0
BITMAP
003000
003000
007800
005800
00d800
009800
018c00
010c00
030c00
020c00
060600
07fe00
0c0600
080600
180300
100300
300300
fc0fc0
ENDCHAR
STARTCHAR B
ENCODING 66
SWIDTH 722 0
DWIDTH 17 0
BBX 16 18 0 0
BITMAP
1ffc
0607
0603
0603
0603
0c06
0c06
0c0c
0ff0
180c
1806
1806
1806
3006
300c
300c
3018
ffe0
ENDCHAR
STARTCHAR C
ENCODING 67
SWIDTH 722 0
DWIDTH 18 0
BBX 16 18 1 0
BITMAP
03f9
0e0f
1807
3002
3002
6002
6000
6000
c000
c000
c000
c000
c004
c004
c008
6008
7030
1fc0
ENDCHAR
STARTCHAR D
ENCODING 68
SWIDTH 778 0
DWIDTH 19 0
BBX 17 18 0 0
BITMAP
1ffc00
060700
060300
060180
060180
0c0180
0c0180
0c0180
0c0180
180180
180300
180300
180300
300600
300600
300c00
303800
ffe000
ENDCHAR
STARTCHAR E
ENCODING 69
SWIDTH 722 0
DWIDTH 16 0
BBX 16 18 0 0
BITMAP
1fff
0603
0602
0602
0602
0c10
0c10
0c20
0fe0
1860
1820
1820
1800
3002
3002
3004
300c
fffc
ENDCHAR
STARTCHAR F
ENCODING 70
SWIDTH 667 0
DWIDTH 16 0
BBX 16 18 0 0
BITMAP
1fff
0603
0602
0602
0602
0c10
0c10
0c20
0fe0
1860
1820
1820
1800
3000
3000
3000
3000
fc00
ENDCHAR
STARTCHAR G
ENCODING 71
SWIDTH 778 0
DWIDTH 18 0
BBX 16 18 1 0
BITMAP
03f9
0e0f
1807
3002
3002
6002
6000
6000
c000
c000
c03f
c00c
c00c
c00c
c018
6018
7078
1f88
ENDCHAR
STARTCHAR H
ENCODING 72
SWIDTH 833 0
DWIDTH 21 0
BBX 19 18 1 0
BITMAP
1f87e0
060180
060180
060180
060180
0c0300
0c0300
0c0300
0fff00
180600
180600
180600
180600
300c00
300c00
300c00
300c00
fc3f00
ENDCHAR
STARTCHAR I
ENCODING 73
SWIDTH 407 0
DWIDTH 11 0
BBX 9 18 1 0
BITMAP
1f80
0600
0600
0600
0600
0c00
0c00
0c00
0c00
1800
1800
1800
1800
3000
3000
3000
3000
fc00
ENDCHAR
STARTCHAR J
ENCODING 74
SWIDTH 611 0
DWIDTH 14 0
BBX 13 18 0 0
BITMAP
01f8
0060
0060
0060
0060
00c0
00c0
00c0
00c0
0180
0180
0180
6180
e300
e300
8300
c600
7c00
ENDCHAR
STARTCHAR K
ENCODING 75
SWIDTH 741 0
DWIDTH 19 0
BBX 18 18 1 0
BITMAP
1f8fc0
060300
060600
060c00
061800
0c3000
0c6000
0cc000
0dc000
1f6000
1c6000
183000
183000
301800
301800
300c00
300c00
fc1f00
ENDCHAR
STARTCHAR L
ENCODING 76
SWIDTH 667 0
DWIDTH 16 0
BBX 14 18 1 0
BITMAP
1f80
0600
0600
0600
0600
0c00
0c00
0c00
0c00
1800
1800
1800
1800
3004
3004
3008
3018
fff8
ENDCHAR
STARTCHAR M
ENCODING 77
SWIDTH 944 0
DWIDTH 23 0
BBX 24 18 -1 0
BITMAP
0f001f
03001c
03003c
03803c
078058
058058
058098
058118
0cc130
08c230
08c230
08c430
18c430
106860
106860
107060
307060
fc61f8
ENDCHAR
STARTCHAR N
ENCODING 78
SWIDTH 815 0
DWIDTH 21 0
BBX 21 18 0 0
BITMAP
1e01f8
070060
070040
058040
058040
04c0c0
0cc080
086080
086080
083180
183100
101900
101900
100d00
300e00
200600
200600
fc0200
ENDCHAR
STARTCHAR O
ENCODING 79
SWIDTH 778 0
DWIDTH 18 0
BBX 16 18 1 0
BITMAP
03f8
0e0e
1806
3003
3003
6003
6003
6003
c003
c003
c006
c006
c006
c00c
c00c
6018
7070
1fc0
ENDCHAR
STARTCHAR P
ENCODING 80
SWIDTH 667 0
DWIDTH 17 0
BBX 16 18 1 0
BITMAP
1ff8
0606
0603
0603
0603
0c03
0c06
0c06
0c18
1fe0
1800
1800
1800
3000
3000
3000
3000
fc00
ENDCHAR
STARTCHAR Q
ENCODING 81
SWIDTH 778 0
DWIDTH 18 0
BBX 16 22 1 -4
BITMAP
03f8
0e0e
1806
3003
3003
6003
6003
6003
c003
c003
c006
c706
cf86
d18c
e0cc
60d8
70f0
1fc0
0060
0064
0078
0030
ENDCHAR
STARTCHAR R
ENCODING 82
SWIDTH 741 0
DWIDTH 19 0
BBX 16 18 1 0
BITMAP
1ff8
0606
0603
0603
0603
0c06
0c06
0c0c
0ff0
1830
1818
1818
1818
3018
3018
3019
3019
fc0e
ENDCHAR
STARTCHAR S
ENCODING 83
SWIDTH 667 0
DWIDTH 16 0
BBX 14 18 1 0
BITMAP
03e4
0c3c
181c
3008
3008
3008
3800
1e00
0f80
03e0
00f0
0038
4018
4018
4018
e030
f060
9f80
ENDCHAR
STARTCHAR T
ENCODING 84
SWIDTH 685 0
DWIDTH 17 0
BBX 15 18 1 0
BITMAP
7ffe
6186
4182
8182
8182
0300
0300
0300
0300
0600
0600
0600
0600
0c00
0c00
0c00
0c00
3f00
ENDCHAR
STARTCHAR U
ENCODING 85
SWIDTH 815 0
DWIDTH 19 0
BBX 18 18 1 0
BITMAP
7e07c0
180100
180100
180100
180300
300200
300200
300200
300600
600400
600400
600400
600c00
c00800
c00800
c01800
603000
3fc000
ENDCHAR
STARTCHAR V
ENCODING 86
SWIDTH 704 0
DWIDTH 17 0
BBX 17 18 1 0
BITMAP
fc1f80
300600
300400
300c00
300800
181800
181000
183000
182000
0c6000
0c4000
0cc000
0c8000
058000
070000
070000
060000
060000
ENDCHAR
STARTCHAR W
ENCODING 87
SWIDTH 926 0
DWIDTH 24 0
BBX 24 18 1 0
BITMAP
fc7e3f
30180c
301808
303818
303810
182c10
184c30
184c20
184c20
188c60
0c8640
0c8640
0d0680
0d0680
0d0680
060300
060300
040200
ENDCHAR
STARTCHAR X
ENCODING 88
SWIDTH 704 0
DWIDTH 18 0
BBX 20 18 -1 0
BITMAP
0fc3f0
0300c0
030180
018300
018600
00cc00
00d800
007000
006000
007000
00f000
019800
031800
060c00
0c0c00
180600
300600
fc1f80
ENDCHAR
STARTCHAR Y
ENCODING 89
SWIDTH 685 0
DWIDTH 17 0
BBX 17 18 1 0
BITMAP
fc1f80
300600
300c00
181800
181000
0c3000
0c2000
064000
06c000
038000
030000
030000
030000
060000
060000
060000
060000
1f8000
ENDCHAR
STARTCHAR Z
ENCODING 90
SWIDTH 667 0
DWIDTH 16 0
BBX 16 18 0 0
BITMAP
1fff
1807
100e
201c
2038
0070
0060
00c0
01c0
0380
0700
0600
0c00
1c04
3804
7008
e018
fff8
ENDCHAR
STARTCHAR bracketleft
ENCODING 91
SWIDTH 333 0
DWIDTH 9 0
BBX 9 20 1 -2
BITMAP
0f80
0c00
0c00
0c00
1800
1800
1800
1800
3000
3000
3000
3000
6000
6000
6000
6000
c000
c000
c000
f800
ENDCHAR
STARTCHAR backslash
ENCODING 92
SWIDTH 606 0
DWIDTH 13 0
BBX 10 18 1 0
BITMAP
c000
4000
6000
2000
3000
1000
1800
0800
0c00
0400
0600
0200
0300
0100
0180
0080
00c0
0040
ENDCHAR
STARTCHAR bracketright
ENCODING 93
SWIDTH 333 0
DWIDTH 9 0
BBX 9 20 -1 -2
BITMAP
0f80
0180
0180
0180
0300
0300
0300
0300
0600
0600
0600
0600
0c00
0c00
0c00
0c00
1800
1800
1800
f800
ENDCHAR
STARTCHAR asciicircum
ENCODING 94
SWIDTH 606 0
DWIDTH 14 0
BBX 9 10 2 8
BITMAP
0800
0800
1400
1400
2200
2200
4100
4100
8080
8080
ENDCHAR
STARTCHAR underscore
ENCODING 95
SWIDTH 500 0
DWIDTH 12 0
BBX 12 1 -1 -2
BITMAP
fff0
ENDCHAR
STARTCHAR grave
ENCODING 96
SWIDTH 333 0
DWIDTH 7 0
BBX 5 4 1 13
BITMAP
c0
60
10
08
ENDCHAR
STARTCHAR a
ENCODING 97
SWIDTH 574 0
DWIDTH 15 0
BBX 13 12 1 0
BITMAP
0f30
38b0
6070
6030
c060
c060
c060
c060
c0c0
c1c8
62d0
3ce0
ENDCHAR
STARTCHAR b
ENCODING 98
SWIDTH 556 0
DWIDTH 13 0
BBX 11 18 1 0
BITMAP
7800
1800
1800
1800
3000
3000
3780
38c0
6060
6060
6060
6060
c060
c060
c0c0
c0c0
6180
3e00
ENDCHAR
STARTCHAR c
ENCODING 99
SWIDTH 444 0
DWIDTH 12 0
BBX 10 12 1 0
BITMAP
0f80
30c0
61c0
6180
c000
c000
c000
c000
c000
c080
6300
3c00
ENDCHAR
STARTCHAR d
ENCODING 100
SWIDTH 611 0
DWIDTH 15 0
BBX 13 18 1 0
BITMAP
0078
0018
0018
0018
0030
0030
0f30
38b0
6070
6060
c060
c060
c060
c0c0
c0c0
c1c8
62d0
3ce0
ENDCHAR
STARTCHAR e
ENCODING 101
SWIDTH 444 0
DWIDTH 12 0
BBX 10 12 1 0
BITMAP
0f80
38c0
60c0
60c0
c180
c300
fc00
c000
c000
c040
6180
3e00
ENDCHAR
STARTCHAR f
ENCODING 102
SWIDTH 333 0
DWIDTH 7 0
BBX 11 23 0 -5
BITMAP
01c0
0660
0660
0c00
0c00
0c00
7f00
1800
1800
1800
1800
3000
3000
3000
3000
6000
6000
6000
6000
c000
c000
c000
c000
ENDCHAR
STARTCHAR g
ENCODING 103
SWIDTH 537 0
DWIDTH 12 0
BBX 13 19 -1 -5
BITMAP
0018
0038
07c0
1860
3030
3030
3030
3030
1860
0f80
3000
6000
7fc0
1fe0
6030
c030
c030
e060
3f80
ENDCHAR
STARTCHAR h
ENCODING 104
SWIDTH 611 0
DWIDTH 15 0
BBX 13 18 1 0
BITMAP
7800
1800
1800
1800
3000
3000
30e0
3370
3430
7830
6030
6060
6060
c060
c0c0
c0c8
c0d0
c0e0
ENDCHAR
STARTCHAR i
ENCODING 105
SWIDTH 333 0
DWIDTH 7 0
BBX 5 18 1 0
BITMAP
18
18
18
00
00
00
f0
30
30
30
60
60
60
60
c0
c8
c8
70
ENDCHAR
STARTCHAR j
ENCODING 106
SWIDTH 315 0
DWIDTH 7 0
BBX 10 23 -4 -5
BITMAP
00c0
00c0
00c0
0000
0000
0000
0780
0180
0180
0180
0180
0300
0300
0300
0300
0300
0600
0600
0600
0600
c400
cc00
f000
ENDCHAR
STARTCHAR k
ENCODING 107
SWIDTH 556 0
DWIDTH 13 0
BBX 12 18 1 0
BITMAP
7800
1800
1800
1800
3000
3000
31c0
3660
3860
6060
60c0
6300
7e00
c300
c300
c190
c190
c0e0
ENDCHAR
STARTCHAR l
ENCODING 108
SWIDTH 333 0
DWIDTH 7 0
BBX 5 18 1 0
BITMAP
78
18
18
18
30
30
30
30
30
60
60
60
60
c0
c0
c8
c8
70
ENDCHAR
STARTCHAR m
ENCODING 109
SWIDTH 889 0
DWIDTH 23 0
BBX 21 12 1 0
BITMAP
f0e0e0
337370
343430
383830
603030
606060
606060
606060
c0c0c0
c0c0c8
c0c0c8
c0c070
ENDCHAR
STARTCHAR n
ENCODING 110
SWIDTH 611 0
DWIDTH 15 0
BBX 13 12 1 0
BITMAP
f0e0
3370
3430
3830
6030
6060
6060
6060
c0c0
c0c8
c0d0
c0e0
ENDCHAR
STARTCHAR o
ENCODING 111
SWIDTH 500 0
DWIDTH 13 0
BBX 11 12 1 0
BITMAP
0f80
38c0
6060
6060
c060
c060
c060
c060
c0c0
c0c0
6380
3e00
ENDCHAR
STARTCHAR p
ENCODING 112
SWIDTH 574 0
DWIDTH 14 0
BBX 14 17 -1 -5
BITMAP
3cf0
0f18
0c0c
0c0c
180c
180c
180c
180c
3818
3818
3430
33c0
6000
6000
6000
6000
f000
ENDCHAR
STARTCHAR q
ENCODING 113
SWIDTH 556 0
DWIDTH 14 0
BBX 12 17 1 -5
BITMAP
0f30
30b0
6070
6030
c060
c060
c060
c060
c0c0
c1c0
62c0
3cc0
0180
0180
0180
0180
03c0
ENDCHAR
STARTCHAR r
ENCODING 114
SWIDTH 444 0
DWIDTH 11 0
BBX 10 12 1 0
BITMAP
f180
37c0
38c0
3000
6000
6000
6000
6000
c000
c000
c000
c000
ENDCHAR
STARTCHAR s
ENCODING 115
SWIDTH 444 0
DWIDTH 12 0
BBX 10 12 1 0
BITMAP
0f80
30c0
21c0
6180
7800
3e00
0f00
0380
6180
e180
c300
7c00
ENDCHAR
STARTCHAR t
ENCODING 116
SWIDTH 352 0
DWIDTH 8 0
BBX 7 16 1 0
BITMAP
18
18
18
18
fe
30
30
30
60
60
60
60
c0
c4
c8
70
ENDCHAR
STARTCHAR u
ENCODING 117
SWIDTH 611 0
DWIDTH 15 0
BBX 13 12 1 0
BITMAP
f030
3030
3030
3030
6060
6060
6060
c0c0
c1c0
c2c8
ecd0
70e0
ENDCHAR
STARTCHAR v
ENCODING 118
SWIDTH 519 0
DWIDTH 13 0
BBX 11 12 1 0
BITMAP
f0c0
30e0
3060
3020
3020
6020
6020
6040
6040
6080
3100
1e00
ENDCHAR
STARTCHAR w
ENCODING 119
SWIDTH 778 0
DWIDTH 20 0
BBX 18 12 1 0
BITMAP
f06180
3061c0
3060c0
306040
306040
60c040
60c040
60c080
60c080
60c100
316200
1e3c00
ENDCHAR
STARTCHAR x
ENCODING 120
SWIDTH 500 0
DWIDTH 13 0
BBX 12 12 0 0
BITMAP
1830
3870
5c80
0d00
0e00
0600
0700
0b00
0b80
1190
e1e0
c0c0
ENDCHAR
STARTCHAR y
ENCODING 121
SWIDTH 500 0
DWIDTH 13 0
BBX 13 17 -1 -5
BITMAP
1818
3c18
4c08
0c10
0610
0620
0620
0340
0340
0380
0100
0100
0200
0200
c400
c800
7000
ENDCHAR
STARTCHAR z
ENCODING 122
SWIDTH 463 0
DWIDTH 13 0
BBX 11 12 1 0
BITMAP
1e20
3fe0
40c0
4180
0300
0e00
1800
3000
6040
c040
ff80
9f00
ENDCHAR
STARTCHAR braceleft
ENCODING 123
SWIDTH 333 0
DWIDTH 7 0
BBX 7 20 0 -2
BITMAP
06
08
18
18
18
30
30
30
20
c0
60
60
60
60
c0
c0
c0
c0
40
30
ENDCHAR
STARTCHAR bar
ENCODING 124
SWIDTH 606 0
DWIDTH 15 0
BBX 1 18 7 0
BITMAP
80
80
80
80
80
80
80
80
80
80
80
80
80
80
80
80
80
80
ENDCHAR
STARTCHAR braceright
ENCODING 125
SWIDTH 333 0
DWIDTH 7 0
BBX 7 20 0 -2
BITMAP
18
04
06
06
06
06
0c
0c
0c
0c
06
08
18
18
18
30
30
30
20
c0
ENDCHAR
STARTCHAR asciitilde
ENCODING 126
SWIDTH 606 0
DWIDTH 14 0
BBX 12 4 1 6
BITMAP
1800
7e30
c7e0
0180
ENDCHAR
STARTCHAR nobreakspace
ENCODING 160
SWIDTH 278 0
DWIDTH 7 0
BBX 1 1 0 0
BITMAP
00
ENDCHAR
STARTCHAR Aogonek
ENCODING 161
SWIDTH 704 0
DWIDTH 18 0
BBX 18 22 -1 -4
BITMAP
003000
003000
007800
005800
00d800
009800
018c00
010c00
030c00
020c00
060600
07fe00
0c0600
080600
180300
100300
300300
fc0fc0
008000
010000
012000
01c000
ENDCHAR
STARTCHAR breve
ENCODING 162
SWIDTH 333 0
DWIDTH 9 0
BBX 7 3 1 13
BITMAP
82
c6
7c
ENDCHAR
STARTCHAR Lstroke
ENCODING 163
SWIDTH 667 0
DWIDTH 17 0
BBX 15 18 1 0
BITMAP
1f80
0600
0600
0600
0600
0c00
0cc0
0f00
0c00
1800
7800
1800
1800
3002
3002
3004
300c
fffc
ENDCHAR
STARTCHAR currency
ENCODING 164
SWIDTH 606 0
DWIDTH 14 0
BBX 10 10 2 3
BITMAP
dec0
6180
4080
8040
8040
8040
8040
4080
e1c0
9e40
ENDCHAR
STARTCHAR Lcaron
ENCODING 165
SWIDTH 667 0
DWIDTH 16 0
BBX 14 20 1 0
BITMAP
0018
001c
1f8c
0608
0610
0620
0600
0c00
0c00
0c00
0c00
1800
1800
1800
1800
3004
3004
3008
3018
fff8
ENDCHAR
STARTCHAR Sacute
ENCODING 166
SWIDTH 667 0
DWIDTH 16 0
BBX 14 23 1 0
BITMAP
0018
0030
0040
0080
0000
03e4
0c3c
181c
3008
3008
3008
3800
1e00
0f80
03e0
00f0
0038
4018
4018
4018
e030
f060
9f80
ENDCHAR
STARTCHAR section
ENCODING 167
SWIDTH 500 0
DWIDTH 13 0
BBX 11 21 1 -3
BITMAP
03c0
0c60
18e0
18c0
1800
0c00
0e00
1700
2380
61c0
60c0
70c0
3880
1d00
0e00
0700
0300
6300
e300
c600
7800
ENDCHAR
STARTCHAR diaeresis
ENCODING 168
SWIDTH 333 0
DWIDTH 8 0
BBX 6 2 2 14
BITMAP
cc
cc
ENDCHAR
STARTCHAR Scaron
ENCODING 169
SWIDTH 667 0
DWIDTH 16 0
BBX 14 23 1 0
BITMAP
0110
0120
00c0
0080
0000
03e4
0c3c
181c
3008
3008
3008
3800
1e00
0f80
03e0
00f0
0038
4018
4018
4018
e030
f060
9f80
ENDCHAR
STARTCHAR Scedilla
ENCODING 170
SWIDTH 667 0
DWIDTH 16 0
BBX 14 22 1 -4
BITMAP
03e4
0c3c
181c
3008
3008
3008
3800
1e00
0f80
03e0
00f0
0038
4018
4018
4018
e030
f060
9f80
0100
0380
0080
0700
ENDCHAR
STARTCHAR Tcaron
ENCODING 171
SWIDTH 685 0
DWIDTH 17 0
BBX 15 23 1 0
BITMAP
0110
0120
00c0
0080
0000
7ffe
6186
4182
8182
8182
0300
0300
0300
0300
0600
0600
0600
0600
0c00
0c00
0c00
0c00
3f00
ENDCHAR
STARTCHAR Zacute
ENCODING 172
SWIDTH 667 0
DWIDTH 16 0
BBX 16 23 0 0
BITMAP
000c
0018
0020
0040
0000
1fff
1807
100e
201c
2038
0070
0060
00c0
01c0
0380
0700
0600
0c00
1c04
3804
7008
e018
fff8
ENDCHAR
STARTCHAR hyphen
ENCODING 173
SWIDTH 333 0
DWIDTH 8 0
BBX 5 2 1 5
BITMAP
f8
f8
ENDCHAR
STARTCHAR Zcaron
ENCODING 174
SWIDTH 667 0
DWIDTH 16 0
BBX 16 23 0 0
BITMAP
0088
0090
0060
0040
0000
1fff
1807
100e
201c
2038
0070
0060
00c0
01c0
0380
0700
0600
0c00
1c04
3804
7008
e018
fff8
ENDCHAR
STARTCHAR Zabovedot
ENCODING 175
SWIDTH 667 0
DWIDTH 16 0
BBX 16 21 0 0
BITMAP
0060
0060
0000
1fff
1807
100e
201c
2038
0070
0060
00c0
01c0
0380
0700
0600
0c00
1c04
3804
7008
e018
fff8
ENDCHAR
STARTCHAR degree
ENCODING 176
SWIDTH 400 0
DWIDTH 9 0
BBX 8 7 1 11
BITMAP
3c
66
c3
c3
c3
66
3c
ENDCHAR
STARTCHAR aogonek
ENCODING 177
SWIDTH 574 0
DWIDTH 15 0
BBX 13 16 1 -4
BITMAP
0f30
38b0
6070
6030
c060
c060
c060
c060
c0c0
c1c8
62d0
3ce0
0200
0400
0480
0700
ENDCHAR
STARTCHAR ogonek
ENCODING 178
SWIDTH 333 0
DWIDTH 8 0
BBX 4 4 1 -4
BITMAP
40
80
90
e0
ENDCHAR
STARTCHAR lstroke
ENCODING 179
SWIDTH 333 0
DWIDTH 7 0
BBX 8 18 0 0
BITMAP
3c
0c
0c
0c
18
1b
1c
38
d8
30
30
30
30
60
60
64
64
38
ENDCHAR
STARTCHAR acute
ENCODING 180
SWIDTH 333 0
DWIDTH 7 0
BBX 5 4 2 14
BITMAP
18
30
40
80
ENDCHAR
STARTCHAR lcaron
ENCODING 181
SWIDTH 480 0
DWIDTH 12 0
BBX 10 20 1 0
BITMAP
0180
01c0
78c0
1880
1900
1a00
3000
3000
3000
3000
3000
6000
6000
6000
6000
c000
c000
c800
c800
7000
ENDCHAR
STARTCHAR sacute
ENCODING 182
SWIDTH 444 0
DWIDTH 12 0
BBX 11 17 1 0
BITMAP
0060
00c0
0100
0200
0000
0f80
30c0
21c0
6180
7800
3e00
0f00
0380
6180
e180
c300
7c00
ENDCHAR
STARTCHAR caron
ENCODING 183
SWIDTH 333 0
DWIDTH 6 0
BBX 5 4 1 13
BITMAP
88
90
60
40
ENDCHAR
STARTCHAR cedilla
ENCODING 184
SWIDTH 333 0
DWIDTH 7 0
BBX 4 4 2 -4
BITMAP
20
70
10
e0
ENDCHAR
STARTCHAR scaron
ENCODING 185
SWIDTH 444 0
DWIDTH 12 0
BBX 10 17 1 0
BITMAP
0440
0480
0300
0200
0000
0f80
30c0
21c0
6180
7800
3e00
0f00
0380
6180
e180
c300
7c00
ENDCHAR
STARTCHAR scedilla
ENCODING 186
SWIDTH 444 0
DWIDTH 12 0
BBX 10 16 1 -4
BITMAP
0f80
30c0
21c0
6180
7800
3e00
0f00
0380
6180
e180
c300
7c00
0400
0e00
0200
1c00
ENDCHAR
STARTCHAR tcaron
ENCODING 187
SWIDTH 440 0
DWIDTH 11 0
BBX 10 19 1 0
BITMAP
0180
01c0
00c0
1880
1900
1a00
1800
fe00
3000
3000
3000
6000
6000
6000
6000
c000
c400
c800
7000
ENDCHAR
STARTCHAR zacute
ENCODING 188
SWIDTH 463 0
DWIDTH 13 0
BBX 11 17 1 0
BITMAP
0060
00c0
0100
0200
0000
1e20
3fe0
40c0
4180
0300
0e00
1800
3000
6040
c040
ff80
9f00
ENDCHAR
STARTCHAR doubleacute
ENCODING 189
SWIDTH 333 0
DWIDTH 11 0
BBX 9 4 1 13
BITMAP
1980
3300
4400
8800
ENDCHAR
STARTCHAR zcaron
ENCODING 190
SWIDTH 463 0
DWIDTH 13 0
BBX 11 17 1 0
BITMAP
0440
0480
0300
0200
0000
1e20
3fe0
40c0
4180
0300
0e00
1800
3000
6040
c040
ff80
9f00
ENDCHAR
STARTCHAR zabovedot
ENCODING 191
SWIDTH 463 0
DWIDTH 13 0
BBX 11 15 1 0
BITMAP
0300
0300
0000
1e20
3fe0
40c0
4180
0300
0e00
1800
3000
6040
c040
ff80
9f00
ENDCHAR
STARTCHAR Racute
ENCODING 192
SWIDTH 741 0
DWIDTH 19 0
BBX 16 23 1 0
BITMAP
000c
0018
0020
0040
0000
1ff8
0606
0603
0603
0603
0c06
0c06
0c0c
0ff0
1830
1818
1818
1818
3018
3018
3019
3019
fc0e
ENDCHAR
STARTCHAR Aacute
ENCODING 193
SWIDTH 704 0
DWIDTH 18 0
BBX 18 23 -1 0
BITMAP
000600
000c00
001000
002000
000000
003000
003000
007800
005800
00d800
009800
018c00
010c00
030c00
020c00
060600
07fe00
0c0600
080600
180300
100300
300300
fc0fc0
ENDCHAR
STARTCHAR Acircumflex
ENCODING 194
SWIDTH 704 0
DWIDTH 18 0
BBX 18 23 -1 0
BITMAP
001000
003000
004800
008800
000000
003000
003000
007800
005800
00d800
009800
018c00
010c00
030c00
020c00
060600
07fe00
0c0600
080600
180300
100300
300300
fc0fc0
ENDCHAR
STARTCHAR Abreve
ENCODING 195
SWIDTH 704 0
DWIDTH 18 0
BBX 18 22 -1 0
BITMAP
008200
00c600
007c00
000000
003000
003000
007800
005800
00d800
009800
018c00
010c00
030c00
020c00
060600
07fe00
0c0600
080600
180300
100300
300300
fc0fc0
ENDCHAR
STARTCHAR Adiaeresis
ENCODING 196
SWIDTH 704 0
DWIDTH 18 0
BBX 18 22 -1 0
BITMAP
00cc00
00cc00
000000
000000
003000
003000
007800
005800
00d800
009800
018c00
010c00
030c00
020c00
060600
07fe00
0c0600
080600
180300
100300
300300
fc0fc0
ENDCHAR
STARTCHAR Lacute
ENCODING 197
SWIDTH 667 0
DWIDTH 16 0
BBX 14 23 1 0
BITMAP
0060
00c0
0100
0200
0000
1f80
0600
0600
0600
0600
0c00
0c00
0c00
0c00
1800
1800
1800
1800
3004
3004
3008
3018
fff8
ENDCHAR
STARTCHAR Cacute
ENCODING 198
SWIDTH 722 0
DWIDTH 18 0
BBX 16 23 1 0
BITMAP
000c
0018
0020
0040
0000
03f9
0e0f
1807
3002
3002
6002
6000
6000
c000
c000
c000
c000
c004
c004
c008
6008
7030
1fc0
ENDCHAR
STARTCHAR Ccedilla
ENCODING 199
SWIDTH 722 0
DWIDTH 18 0
BBX 16 22 1 -4
BITMAP
03f9
0e0f
1807
3002
3002
6002
6000
6000
c000
c000
c000
c000
c004
c004
c008
6008
7030
1fc0
0200
0700
0100
0e00
ENDCHAR
STARTCHAR Ccaron
ENCODING 200
SWIDTH 722 0
DWIDTH 18 0
BBX 16 23 1 0
BITMAP
0088
0090
0060
0040
0000
03f9
0e0f
1807
3002
3002
6002
6000
6000
c000
c000
c000
c000
c004
c004
c008
6008
7030
1fc0
ENDCHAR
STARTCHAR Eacute
ENCODING 201
SWIDTH 722 0
DWIDTH 16 0
BBX 16 23 0 0
BITMAP
000c
0018
0020
0040
0000
1fff
0603
0602
0602
0602
0c10
0c10
0c20
0fe0
1860
1820
1820
1800
3002
3002
3004
300c
fffc
ENDCHAR
STARTCHAR Eogonek
ENCODING 202
SWIDTH 722 0
DWIDTH 16 0
BBX 16 22 0 -4
BITMAP
1fff
0603
0602
0602
0602
0c10
0c10
0c20
0fe0
1860
1820
1820
1800
3002
3002
3004
300c
fffc
0100
0200
0240
0380
ENDCHAR
STARTCHAR Ediaeresis
ENCODING 203
SWIDTH 722 0
DWIDTH 16 0
BBX 16 22 0 0
BITMAP
018c
018c
0000
0000
1fff
0603
0602
0602
0602
0c10
0c10
0c20
0fe0
1860
1820
1820
1800
3002
3002
3004
300c
fffc
ENDCHAR
STARTCHAR Ecaron
ENCODING 204
SWIDTH 722 0
DWIDTH 16 0
BBX 16 23 0 0
BITMAP
0088
0090
0060
0040
0000
1fff
0603
0602
0602
0602
0c10
0c10
0c20
0fe0
1860
1820
1820
1800
3002
3002
3004
300c
fffc
ENDCHAR
STARTCHAR Iacute
ENCODING 205
SWIDTH 407 0
DWIDTH 11 0
BBX 10 23 1 0
BITMAP
00c0
0180
0200
0400
0000
1f80
0600
0600
0600
0600
0c00
0c00
0c00
0c00
1800
1800
1800
1800
3000
3000
3000
3000
fc00
ENDCHAR
STARTCHAR Icircumflex
ENCODING 206
SWIDTH 407 0
DWIDTH 11 0
BBX 9 23 1 0
BITMAP
0100
0300
0480
0880
0000
1f80
0600
0600
0600
0600
0c00
0c00
0c00
0c00
1800
1800
1800
1800
3000
3000
3000
3000
fc00
ENDCHAR
STARTCHAR Dcaron
ENCODING 207
SWIDTH 778 0
DWIDTH 19 0
BBX 17 23 0 0
BITMAP
008800
009000
006000
004000
000000
1ffc00
060700
060300
060180
060180
0c0180
0c0180
0c0180
0c0180
180180
180300
180300
180300
300600
300600
300c00
303800
ffe000
ENDCHAR
STARTCHAR Dstroke
ENCODING 208
SWIDTH 778 0
DWIDTH 19 0
BBX 17 18 0 0
BITMAP
1ffc00
060700
060300
060180
060180
0c0180
0c0180
0c0180
7f8180
180180
180300
180300
180300
300600
300600
300c00
303800
ffe000
ENDCHAR
STARTCHAR Nacute
ENCODING 209
SWIDTH 815 0
DWIDTH 21 0
BBX 21 23 0 0
BITMAP
000180
000300
000400
000800
000000
1e01f8
070060
070040
058040
058040
04c0c0
0cc080
086080
086080
083180
183100
101900
101900
100d00
300e00
200600
200600
fc0200
ENDCHAR
STARTCHAR Ncaron
ENCODING 210
SWIDTH 815 0
DWIDTH 21 0
BBX 21 23 0 0
BITMAP
001100
001200
000c00
000800
000000
1e01f8
070060
070040
058040
058040
04c0c0
0cc080
086080
086080
083180
183100
101900
101900
100d00
300e00
200600
200600
fc0200
ENDCHAR
STARTCHAR Oacute
ENCODING 211
SWIDTH 778 0
DWIDTH 18 0
BBX 16 23 1 0
BITMAP
0018
0030
0040
0080
0000
03f8
0e0e
1806
3003
3003
6003
6003
6003
c003
c003
c006
c006
c006
c00c
c00c
6018
7070
1fc0
ENDCHAR
STARTCHAR Ocircumflex
ENCODING 212
SWIDTH 778 0
DWIDTH 18 0
BBX 16 23 1 0
BITMAP
0020
0060
0090
0110
0000
03f8
0e0e
1806
3003
3003
6003
6003
6003
c003
c003
c006
c006
c006
c00c
c00c
6018
7070
1fc0
ENDCHAR
STARTCHAR Odoubleacute
ENCODING 213
SWIDTH 778 0
DWIDTH 18 0
BBX 16 23 1 0
BITMAP
0033
0066
0088
0110
0000
03f8
0e0e
1806
3003
3003
6003
6003
6003
c003
c003
c006
c006
c006
c00c
c00c
6018
7070
1fc0
ENDCHAR
STARTCHAR Odiaeresis
ENCODING 214
SWIDTH 778 0
DWIDTH 18 0
BBX 16 22 1 0
BITMAP
0198
0198
0000
0000
03f8
0e0e
1806
3003
3003
6003
6003
6003
c003
c003
c006
c006
c006
c00c
c00c
6018
7070
1fc0
ENDCHAR
STARTCHAR multiply
ENCODING 215
SWIDTH 606 0
DWIDTH 13 0
BBX 12 11 1 2
BITMAP
c030
6060
30c0
1980
0f00
0600
0f00
1980
30c0
6060
c030
ENDCHAR
STARTCHAR Rcaron
ENCODING 216
SWIDTH 741 0
DWIDTH 19 0
BBX 16 23 1 0
BITMAP
0088
0090
0060
0040
0000
1ff8
0606
0603
0603
0603
0c06
0c06
0c0c
0ff0
1830
1818
1818
1818
3018
3018
3019
3019
fc0e
ENDCHAR
STARTCHAR Uring
ENCODING 217
SWIDTH 815 0
DWIDTH 19 0
BBX 18 24 1 0
BITMAP
00e000
011000
011000
011000
00e000
000000
7e07c0
180100
180100
180100
180300
300200
300200
300200
300600
600400
600400
600400
600c00
c00800
c00800
c01800
603000
3fc000
ENDCHAR
STARTCHAR Uacute
ENCODING 218
SWIDTH 815 0
DWIDTH 19 0
BBX 18 23 1 0
BITMAP
000c00
001800
002000
004000
000000
7e07c0
180100
180100
180100
180300
300200
300200
300200
300600
600400
600400
600400
600c00
c00800
c00800
c01800
603000
3fc000
ENDCHAR
STARTCHAR Udoubleacute
ENCODING 219
SWIDTH 815 0
DWIDTH 19 0
BBX 18 23 1 0
BITMAP
003300
006600
008800
011000
000000
7e07c0
180100
180100
180100
180300
300200
300200
300200
300600
600400
600400
600400
600c00
c00800
c00800
c01800
603000
3fc000
ENDCHAR
STARTCHAR Udiaeresis
ENCODING 220
SWIDTH 815 0
DWIDTH 19 0
BBX 18 22 1 0
BITMAP
018c00
018c00
000000
000000
7e07c0
180100
180100
180100
180300
300200
300200
300200
300600
600400
600400
600400
600c00
c00800
c00800
c01800
603000
3fc000
ENDCHAR
STARTCHAR Yacute
ENCODING 221
SWIDTH 685 0
DWIDTH 17 0
BBX 17 23 1 0
BITMAP
003000
006000
008000
010000
000000
fc1f80
300600
300c00
181800
181000
0c3000
0c2000
064000
06c000
038000
030000
030000
030000
060000
060000
060000
060000
1f8000
ENDCHAR
STARTCHAR Tcedilla
ENCODING 222
SWIDTH 685 0
DWIDTH 17 0
BBX 15 22 1 -4
BITMAP
7ffe
6186
4182
8182
8182
0300
0300
0300
0300
0600
0600
0600
0600
0c00
0c00
0c00
0c00
3f00
0080
01c0
0040
0380
ENDCHAR
STARTCHAR ssharp
ENCODING 223
SWIDTH 556 0
DWIDTH 14 0
BBX 13 23 0 -5
BITMAP
01e0
0638
0618
0c18
0c18
0c18
0c30
19c0
1860
1830
1830
3030
3030
3030
3060
6c60
6cc0
6700
6000
c000
c000
c000
c000
ENDCHAR
STARTCHAR racute
ENCODING 224
SWIDTH 444 0
DWIDTH 11 0
BBX 10 17 1 0
BITMAP
00c0
0180
0200
0400
0000
f180
37c0
38c0
3000
6000
6000
6000
6000
c000
c000
c000
c000
ENDCHAR
STARTCHAR aacute
ENCODING 225
SWIDTH 574 0
DWIDTH 15 0
BBX 13 17 1 0
BITMAP
0060
00c0
0100
0200
0000
0f30
38b0
6070
6030
c060
c060
c060
c060
c0c0
c1c8
62d0
3ce0
ENDCHAR
STARTCHAR acircumflex
ENCODING 226
SWIDTH 574 0
DWIDTH 15 0
BBX 13 17 1 0
BITMAP
0100
0300
0480
0880
0000
0f30
38b0
6070
6030
c060
c060
c060
c060
c0c0
c1c8
62d0
3ce0
ENDCHAR
STARTCHAR abreve
ENCODING 227
SWIDTH 574 0
DWIDTH 15 0
BBX 13 16 1 0
BITMAP
0820
0c60
07c0
0000
0f30
38b0
6070
6030
c060
c060
c060
c060
c0c0
c1c8
62d0
3ce0
ENDCHAR
STARTCHAR adiaeresis
ENCODING 228
SWIDTH 574 0
DWIDTH 15 0
BBX 13 16 1 0
BITMAP
0cc0
0cc0
0000
0000
0f30
38b0
6070
6030
c060
c060
c060
c060
c0c0
c1c8
62d0
3ce0
ENDCHAR
STARTCHAR lacute
ENCODING 229
SWIDTH 333 0
DWIDTH 7 0
BBX 8 23 1 0
BITMAP
03
06
08
10
00
78
18
18
18
30
30
30
30
30
60
60
60
60
c0
c0
c8
c8
70
ENDCHAR
STARTCHAR cacute
ENCODING 230
SWIDTH 444 0
DWIDTH 12 0
BBX 11 17 1 0
BITMAP
0060
00c0
0100
0200
0000
0f80
30c0
61c0
6180
c000
c000
c000
c000
c000
c080
6300
3c00
ENDCHAR
STARTCHAR ccedilla
ENCODING 231
SWIDTH 444 0
DWIDTH 12 0
BBX 10 16 1 -4
BITMAP
0f80
30c0
61c0
6180
c000
c000
c000
c000
c000
c080
6300
3c00
0800
1c00
0400
3800
ENDCHAR
STARTCHAR ccaron
ENCODING 232
SWIDTH 444 0
DWIDTH 12 0
BBX 10 17 1 0
BITMAP
0440
0480
0300
0200
0000
0f80
30c0
61c0
6180
c000
c000
c000
c000
c000
c080
6300
3c00
ENDCHAR
STARTCHAR eacute
ENCODING 233
SWIDTH 444 0
DWIDTH 12 0
BBX 10 17 1 0
BITMAP
00c0
0180
0200
0400
0000
0f80
38c0
60c0
60c0
c180
c300
fc00
c000
c000
c040
6180
3e00
ENDCHAR
STARTCHAR eogonek
ENCODING 234
SWIDTH 444 0
DWIDTH 12 0
BBX 10 16 1 -4
BITMAP
0f80
38c0
60c0
60c0
c180
c300
fc00
c000
c000
c040
6180
3e00
0800
1000
1200
1c00
ENDCHAR
STARTCHAR ediaeresis
ENCODING 235
SWIDTH 444 0
DWIDTH 12 0
BBX 10 16 1 0
BITMAP
1980
1980
0000
0000
0f80
38c0
60c0
60c0
c180
c300
fc00
c000
c000
c040
6180
3e00
ENDCHAR
STARTCHAR ecaron
ENCODING 236
SWIDTH 444 0
DWIDTH 12 0
BBX 10 17 1 0
BITMAP
0440
0480
0300
0200
0000
0f80
38c0
60c0
60c0
c180
c300
fc00
c000
c000
c040
6180
3e00
ENDCHAR
STARTCHAR iacute
ENCODING 237
SWIDTH 333 0
DWIDTH 8 0
BBX 6 17 1 0
BITMAP
0c
18
20
40
00
f0
30
30
30
60
60
60
60
c0
c8
c8
70
ENDCHAR
STARTCHAR icircumflex
ENCODING 238
SWIDTH 333 0
DWIDTH 8 0
BBX 5 17 1 0
BITMAP
10
30
48
88
00
f0
30
30
30
60
60
60
60
c0
c8
c8
70
ENDCHAR
STARTCHAR dcaron
ENCODING 239
SWIDTH 800 0
DWIDTH 20 0
BBX 18 20 1 0
BITMAP
000180
0001c0
0078c0
001880
001900
001a00
003000
003000
0f3000
38b000
607000
606000
c06000
c06000
c06000
c0c000
c0c000
c1c800
62d000
3ce000
ENDCHAR
STARTCHAR dstroke
ENCODING 240
SWIDTH 720 0
DWIDTH 18 0
BBX 16 18 1 0
BITMAP
0078
0018
0018
01ff
01ff
0030
0f30
38b0
6070
6060
c060
c060
c060
c0c0
c0c0
c1c8
62d0
3ce0
ENDCHAR
STARTCHAR nacute
ENCODING 241
SWIDTH 611 0
DWIDTH 15 0
BBX 13 17 1 0
BITMAP
0060
00c0
0100
0200
0000
f0e0
3370
3430
3830
6030
6060
6060
6060
c0c0
c0c8
c0d0
c0e0
ENDCHAR
STARTCHAR ncaron
ENCODING 242
SWIDTH 611 0
DWIDTH 15 0
BBX 13 17 1 0
BITMAP
0440
0480
0300
0200
0000
f0e0
3370
3430
3830
6030
6060
6060
6060
c0c0
c0c8
c0d0
c0e0
ENDCHAR
STARTCHAR oacute
ENCODING 243
SWIDTH 500 0
DWIDTH 13 0
BBX 11 17 1 0
BITMAP
00c0
0180
0200
0400
0000
0f80
38c0
6060
6060
c060
c060
c060
c060
c0c0
c0c0
6380
3e00
ENDCHAR
STARTCHAR ocircumflex
ENCODING 244
SWIDTH 500 0
DWIDTH 13 0
BBX 11 17 1 0
BITMAP
0100
0300
0480
0880
0000
0f80
38c0
6060
6060
c060
c060
c060
c060
c0c0
c0c0
6380
3e00
ENDCHAR
STARTCHAR odoubleacute
ENCODING 245
SWIDTH 500 0
DWIDTH 13 0
BBX 13 17 1 0
BITMAP
0198
0330
0440
0880
0000
0f80
38c0
6060
6060
c060
c060
c060
c060
c0c0
c0c0
6380
3e00
ENDCHAR
STARTCHAR odiaeresis
ENCODING 246
SWIDTH 500 0
DWIDTH 13 0
BBX 11 16 1 0
BITMAP
0cc0
0cc0
0000
0000
0f80
38c0
6060
6060
c060
c060
c060
c060
c0c0
c0c0
6380
3e00
ENDCHAR
STARTCHAR division
ENCODING 247
SWIDTH 606 0
DWIDTH 13 0
BBX 10 9 1 3
BITMAP
0c00
0c00
0000
0000
ffc0
0000
0000
0c00
0c00
ENDCHAR
STARTCHAR rcaron
ENCODING 248
SWIDTH 444 0
DWIDTH 11 0
BBX 10 17 1 0
BITMAP
0880
0900
0600
0400
0000
f180
37c0
38c0
3000
6000
6000
6000
6000
c000
c000
c000
c000
ENDCHAR
STARTCHAR uring
ENCODING 249
SWIDTH 611 0
DWIDTH 15 0
BBX 13 18 1 0
BITMAP
0700
0880
0880
0880
0700
0000
f030
3030
3030
3030
6060
6060
6060
c0c0
c1c0
c2c8
ecd0
70e0
ENDCHAR
STARTCHAR uacute
ENCODING 250
SWIDTH 611 0
DWIDTH 15 0
BBX 13 17 1 0
BITMAP
0060
00c0
0100
0200
0000
f030
3030
3030
3030
6060
6060
6060
c0c0
c1c0
c2c8
ecd0
70e0
ENDCHAR
STARTCHAR udoubleacute
ENCODING 251
SWIDTH 611 0
DWIDTH 15 0
BBX 13 17 1 0
BITMAP
0198
0330
0440
0880
0000
f030
3030
3030
3030
6060
6060
6060
c0c0
c1c0
c2c8
ecd0
70e0
ENDCHAR
STARTCHAR udiaeresis
ENCODING 252
SWIDTH 611 0
DWIDTH 15 0
BBX 13 16 1 0
BITMAP
0cc0
0cc0
0000
0000
f030
3030
3030
3030
6060
6060
6060
c0c0
c1c0
c2c8
ecd0
70e0
ENDCHAR
STARTCHAR yacute
ENCODING 253
SWIDTH 500 0
DWIDTH 13 0
BBX 13 22 -1 -5
BITMAP
0030
0060
0080
0100
0000
1818
3c18
4c08
0c10
0610
0620
0620
0340
0340
0380
0100
0100
0200
0200
c400
c800
7000
ENDCHAR
STARTCHAR tcedilla
ENCODING 254
SWIDTH 352 0
DWIDTH 8 0
BBX 7 20 1 -4
BITMAP
18
18
18
18
fe
30
30
30
60
60
60
60
c0
c4
c8
70
08
1c
04
38
ENDCHAR
STARTCHAR abovedot
ENCODING 255
SWIDTH 333 0
DWIDTH 6 0
BBX 2 2 2 13
BITMAP
c0
c0
ENDCHAR
ENDFONT
